<?xml version="1.0" standalone="no"?>
<!DOCTYPE svg PUBLIC "-//W3C//DTD SVG 20010904//EN"
 "http://www.w3.org/TR/2001/REC-SVG-20010904/DTD/svg10.dtd">
<svg version="1.0" xmlns="http://www.w3.org/2000/svg"
 width="700.000000pt" height="700.000000pt" viewBox="0 0 700.000000 700.000000"
 preserveAspectRatio="xMidYMid meet">
<metadata>
Created by potrace 1.14, written by Peter Selinger 2001-2017
</metadata>
<g transform="translate(0.000000,700.000000) scale(0.100000,-0.100000)"
fill="#000000" stroke="none">
<path d="M3409 6985 c-53 -17 45 64 -1804 -1492 -1207 -1016 -1271 -1071
-1299 -1126 -71 -139 -16 -303 127 -379 40 -22 55 -23 300 -26 l257 -3 0
-1688 c0 -1647 0 -1690 20 -1765 55 -215 224 -396 440 -471 l85 -30 543 -3
542 -3 0 969 c0 1088 -3 1036 72 1110 23 23 58 47 77 54 28 10 196 13 736 13
698 0 700 0 740 -22 22 -11 52 -34 67 -50 61 -64 58 -9 58 -1088 l0 -986 548
3 c612 4 582 1 733 80 149 76 264 211 323 377 l31 86 3 1707 2 1707 258 3
c244 3 259 4 299 26 141 75 197 238 129 377 -26 53 -104 120 -1528 1318 -825
694 -1521 1273 -1546 1286 -58 30 -149 37 -213 16z"/>
</g>
</svg>
